<svg width="1200" height="900" viewBox="0 0 1200 900" fill="none" xmlns="http://www.w3.org/2000/svg" role="img" aria-labelledby="title desc">
  <title id="title">Bamboo chopsticks with porcelain bowl</title>
  <desc id="desc">A refined bamboo and porcelain tabletop scene with natural chopsticks, a ceramic bowl, bamboo leaves, and a soft tea-table background.</desc>
  <defs>
    <linearGradient id="paper" x1="0" y1="0" x2="1200" y2="900" gradientUnits="userSpaceOnUse">
      <stop stop-color="#F8F3E7"/>
      <stop offset=".55" stop-color="#E9DFC8"/>
      <stop offset="1" stop-color="#D7C59E"/>
    </linearGradient>
    <linearGradient id="mat" x1="154" y1="178" x2="1046" y2="760" gradientUnits="userSpaceOnUse">
      <stop stop-color="#FFF9EC"/>
      <stop offset="1" stop-color="#E7D6B4"/>
    </linearGradient>
    <linearGradient id="bamboo" x1="210" y1="0" x2="980" y2="0" gradientUnits="userSpaceOnUse">
      <stop stop-color="#8A5A24"/>
      <stop offset=".28" stop-color="#D7AB5A"/>
      <stop offset=".6" stop-color="#A36E2E"/>
      <stop offset="1" stop-color="#6E421D"/>
    </linearGradient>
    <filter id="shadow" x="-20%" y="-20%" width="150%" height="160%">
      <feDropShadow dx="0" dy="26" stdDeviation="26" flood-color="#5B4424" flood-opacity=".22"/>
    </filter>
    <filter id="soft" x="-20%" y="-20%" width="140%" height="150%">
      <feDropShadow dx="0" dy="14" stdDeviation="18" flood-color="#7A5F32" flood-opacity=".16"/>
    </filter>
  </defs>

  <rect width="1200" height="900" rx="34" fill="url(#paper)"/>
  <path d="M88 0c52 128 52 252 0 380M1110 0c-48 124-48 246 0 376" stroke="#75905F" stroke-opacity=".18" stroke-width="16" stroke-linecap="round"/>
  <path d="M142 156c66 44 126 47 178 8M900 154c64 46 124 48 182 6M126 700c74-42 142-38 204 12M860 718c72-44 142-42 214 8" stroke="#6F8F58" stroke-opacity=".16" stroke-width="18" stroke-linecap="round"/>
  <path d="M170 128H1030V772H170V128Z" fill="url(#mat)" stroke="#C9B47D" stroke-opacity=".5" stroke-width="3"/>
  <path d="M214 172H986V728H214V172Z" stroke="#E9D8AF" stroke-width="2"/>
  <path d="M240 222H960M240 678H960M300 172V728M900 172V728" stroke="#D8C59B" stroke-opacity=".32" stroke-width="2"/>

  <g filter="url(#shadow)">
    <ellipse cx="732" cy="570" rx="272" ry="96" fill="#BFA66E" fill-opacity=".18"/>
    <ellipse cx="742" cy="492" rx="208" ry="154" fill="#FFFDF8"/>
    <ellipse cx="742" cy="462" rx="160" ry="112" fill="#EDE0CC"/>
    <ellipse cx="742" cy="438" rx="132" ry="80" fill="#FFFFFF"/>
    <path d="M612 442c48 48 206 48 262 0" stroke="#C8B599" stroke-width="8" stroke-linecap="round"/>
    <path d="M606 520c66 54 222 54 288 0" stroke="#E7D8C2" stroke-width="11" stroke-linecap="round"/>
  </g>

  <g filter="url(#shadow)">
    <rect x="246" y="322" width="748" height="23" rx="11.5" transform="rotate(-17 246 322)" fill="url(#bamboo)"/>
    <rect x="262" y="376" width="748" height="23" rx="11.5" transform="rotate(-17 262 376)" fill="url(#bamboo)"/>
    <rect x="866" y="142" width="94" height="23" rx="11.5" transform="rotate(-17 866 142)" fill="#E8C675"/>
    <rect x="882" y="196" width="94" height="23" rx="11.5" transform="rotate(-17 882 196)" fill="#E8C675"/>
    <path d="M302 314 934 120" stroke="#F6D990" stroke-opacity=".38" stroke-width="3" stroke-linecap="round"/>
    <path d="M318 368 950 174" stroke="#F6D990" stroke-opacity=".28" stroke-width="3" stroke-linecap="round"/>
  </g>

  <g filter="url(#soft)">
    <rect x="220" y="574" width="282" height="102" rx="18" fill="#FFF7E8" stroke="#D1B877" stroke-width="2"/>
    <text x="254" y="628" font-family="Georgia, 'Times New Roman', serif" font-size="31" font-weight="800" fill="#6C7F45">Bamboo Set</text>
    <path d="M254 652H440" stroke="#B69B58" stroke-opacity=".56" stroke-width="7" stroke-linecap="round"/>
  </g>
</svg>
